<mxfile host="app.diagrams.net" modified="2021-05-10T01:54:07.123Z" agent="5.0 (Macintosh; Intel Mac OS X 10_15_4) AppleWebKit/537.36 (KHTML, like Gecko) Chrome/89.0.4389.114 Safari/537.36" etag="pf5dDIpF_Q1czUeOWqyw" version="14.6.11" type="github">
  <diagram id="C5RBs43oDa-KdzZeNtuy" name="Page-1">
    <mxGraphModel dx="2777" dy="1903" grid="1" gridSize="10" guides="1" tooltips="1" connect="1" arrows="1" fold="1" page="1" pageScale="1" pageWidth="827" pageHeight="1169" background="#DAD2D8" math="0" shadow="0">
      <root>
        <mxCell id="WIyWlLk6GJQsqaUBKTNV-0" />
        <mxCell id="WIyWlLk6GJQsqaUBKTNV-1" parent="WIyWlLk6GJQsqaUBKTNV-0" />
        <mxCell id="teyGcw7DqHjlIo54tSY7-148" value="" style="rounded=0;whiteSpace=wrap;html=1;shadow=0;glass=0;sketch=0;fontSize=12;strokeColor=#23445d;fillColor=#bac8d3;align=center;" parent="WIyWlLk6GJQsqaUBKTNV-1" vertex="1">
          <mxGeometry x="-1027" y="717.5" width="267" height="302.5" as="geometry" />
        </mxCell>
        <mxCell id="teyGcw7DqHjlIo54tSY7-147" value="" style="rounded=0;whiteSpace=wrap;html=1;shadow=0;glass=0;sketch=0;fontSize=12;strokeColor=#d79b00;fillColor=#ffe6cc;align=center;" parent="WIyWlLk6GJQsqaUBKTNV-1" vertex="1">
          <mxGeometry x="-1100" y="717.5" width="68.57" height="302.5" as="geometry" />
        </mxCell>
        <mxCell id="teyGcw7DqHjlIo54tSY7-108" value="" style="rounded=0;whiteSpace=wrap;html=1;sketch=0;fontSize=13;fillColor=#f8cecc;strokeColor=none;" parent="WIyWlLk6GJQsqaUBKTNV-1" vertex="1">
          <mxGeometry x="-362" y="1030" width="1042" height="130" as="geometry" />
        </mxCell>
        <mxCell id="teyGcw7DqHjlIo54tSY7-102" value="" style="rounded=0;whiteSpace=wrap;html=1;sketch=0;fontSize=15;fillColor=#d0cee2;strokeColor=none;" parent="WIyWlLk6GJQsqaUBKTNV-1" vertex="1">
          <mxGeometry x="310" y="940" width="370" height="90" as="geometry" />
        </mxCell>
        <mxCell id="teyGcw7DqHjlIo54tSY7-95" value="" style="rounded=0;whiteSpace=wrap;html=1;sketch=0;fontSize=13;fillColor=#bac8d3;strokeColor=none;" parent="WIyWlLk6GJQsqaUBKTNV-1" vertex="1">
          <mxGeometry x="-362" y="940" width="1042" height="90" as="geometry" />
        </mxCell>
        <mxCell id="teyGcw7DqHjlIo54tSY7-92" value="" style="rounded=0;whiteSpace=wrap;html=1;sketch=0;fontSize=13;fillColor=#b1ddf0;strokeColor=none;" parent="WIyWlLk6GJQsqaUBKTNV-1" vertex="1">
          <mxGeometry x="-362" y="820" width="1042" height="120" as="geometry" />
        </mxCell>
        <mxCell id="teyGcw7DqHjlIo54tSY7-90" value="" style="rounded=0;whiteSpace=wrap;html=1;sketch=0;fontSize=13;fillColor=#dae8fc;strokeColor=none;" parent="WIyWlLk6GJQsqaUBKTNV-1" vertex="1">
          <mxGeometry x="-362" y="160" width="1042" height="660" as="geometry" />
        </mxCell>
        <mxCell id="teyGcw7DqHjlIo54tSY7-89" value="" style="rounded=0;whiteSpace=wrap;html=1;sketch=0;fontSize=13;fillColor=#f5f5f5;fontColor=#333333;strokeColor=none;" parent="WIyWlLk6GJQsqaUBKTNV-1" vertex="1">
          <mxGeometry x="-362" y="110" width="1042" height="50" as="geometry" />
        </mxCell>
        <mxCell id="teyGcw7DqHjlIo54tSY7-88" value="" style="rounded=0;whiteSpace=wrap;html=1;sketch=0;fontSize=13;strokeColor=none;" parent="WIyWlLk6GJQsqaUBKTNV-1" vertex="1">
          <mxGeometry x="-362" y="-60" width="1042" height="170" as="geometry" />
        </mxCell>
        <mxCell id="teyGcw7DqHjlIo54tSY7-1" value="" style="edgeStyle=orthogonalEdgeStyle;curved=0;rounded=1;sketch=0;orthogonalLoop=1;jettySize=auto;html=1;fontColor=#143642;strokeColor=#A8201A;fillColor=#FAE5C7;fontSize=16;" parent="WIyWlLk6GJQsqaUBKTNV-1" source="WIyWlLk6GJQsqaUBKTNV-3" target="teyGcw7DqHjlIo54tSY7-0" edge="1">
          <mxGeometry relative="1" as="geometry" />
        </mxCell>
        <mxCell id="WIyWlLk6GJQsqaUBKTNV-3" value="加载roadedit资源" style="rounded=1;whiteSpace=wrap;html=1;fontSize=16;glass=0;strokeWidth=1;shadow=0;fillColor=#d5e8d4;strokeColor=#82b366;" parent="WIyWlLk6GJQsqaUBKTNV-1" vertex="1">
          <mxGeometry x="140" y="120" width="160" height="30" as="geometry" />
        </mxCell>
        <mxCell id="teyGcw7DqHjlIo54tSY7-5" value="" style="edgeStyle=orthogonalEdgeStyle;curved=0;rounded=1;sketch=0;orthogonalLoop=1;jettySize=auto;html=1;fontColor=#143642;strokeColor=#A8201A;fillColor=#FAE5C7;fontSize=16;" parent="WIyWlLk6GJQsqaUBKTNV-1" source="teyGcw7DqHjlIo54tSY7-0" target="teyGcw7DqHjlIo54tSY7-4" edge="1">
          <mxGeometry relative="1" as="geometry" />
        </mxCell>
        <mxCell id="teyGcw7DqHjlIo54tSY7-0" value="SSO校验" style="rounded=1;whiteSpace=wrap;html=1;fontSize=16;glass=0;strokeWidth=1;shadow=0;fillColor=#FAE5C7;strokeColor=#0F8B8D;fontColor=#143642;dashed=1;" parent="WIyWlLk6GJQsqaUBKTNV-1" vertex="1">
          <mxGeometry x="140" y="170" width="160" height="30" as="geometry" />
        </mxCell>
        <mxCell id="teyGcw7DqHjlIo54tSY7-7" value="" style="edgeStyle=orthogonalEdgeStyle;curved=0;rounded=1;sketch=0;orthogonalLoop=1;jettySize=auto;html=1;fontColor=#143642;strokeColor=#A8201A;fillColor=#FAE5C7;fontSize=15;" parent="WIyWlLk6GJQsqaUBKTNV-1" source="teyGcw7DqHjlIo54tSY7-4" target="teyGcw7DqHjlIo54tSY7-6" edge="1">
          <mxGeometry relative="1" as="geometry" />
        </mxCell>
        <mxCell id="teyGcw7DqHjlIo54tSY7-8" style="edgeStyle=orthogonalEdgeStyle;curved=0;rounded=1;sketch=0;orthogonalLoop=1;jettySize=auto;html=1;exitX=0.5;exitY=1;exitDx=0;exitDy=0;fontColor=#143642;strokeColor=#A8201A;fillColor=#FAE5C7;entryX=0.5;entryY=0;entryDx=0;entryDy=0;fontSize=15;" parent="WIyWlLk6GJQsqaUBKTNV-1" source="teyGcw7DqHjlIo54tSY7-4" target="teyGcw7DqHjlIo54tSY7-9" edge="1">
          <mxGeometry relative="1" as="geometry">
            <mxPoint x="260" y="330" as="targetPoint" />
          </mxGeometry>
        </mxCell>
        <mxCell id="teyGcw7DqHjlIo54tSY7-49" style="edgeStyle=orthogonalEdgeStyle;curved=0;rounded=1;sketch=0;orthogonalLoop=1;jettySize=auto;html=1;exitX=0;exitY=0.5;exitDx=0;exitDy=0;entryX=0.5;entryY=0;entryDx=0;entryDy=0;fontSize=13;fontColor=#143642;strokeColor=#A8201A;fillColor=#FAE5C7;" parent="WIyWlLk6GJQsqaUBKTNV-1" source="teyGcw7DqHjlIo54tSY7-4" target="teyGcw7DqHjlIo54tSY7-48" edge="1">
          <mxGeometry relative="1" as="geometry" />
        </mxCell>
        <mxCell id="teyGcw7DqHjlIo54tSY7-4" value="存在taskid?" style="rhombus;whiteSpace=wrap;html=1;rounded=1;shadow=0;fontColor=#143642;strokeColor=#0F8B8D;strokeWidth=1;fillColor=#FAE5C7;glass=0;fontSize=16;" parent="WIyWlLk6GJQsqaUBKTNV-1" vertex="1">
          <mxGeometry x="140" y="225" width="160" height="55" as="geometry" />
        </mxCell>
        <mxCell id="teyGcw7DqHjlIo54tSY7-11" value="" style="edgeStyle=orthogonalEdgeStyle;curved=0;rounded=1;sketch=0;orthogonalLoop=1;jettySize=auto;html=1;fontColor=#143642;strokeColor=#A8201A;fillColor=#FAE5C7;fontSize=15;" parent="WIyWlLk6GJQsqaUBKTNV-1" source="teyGcw7DqHjlIo54tSY7-6" target="teyGcw7DqHjlIo54tSY7-10" edge="1">
          <mxGeometry relative="1" as="geometry" />
        </mxCell>
        <mxCell id="teyGcw7DqHjlIo54tSY7-6" value="发送请求：env/get&lt;br style=&quot;font-size: 15px;&quot;&gt;获取KMS配置信息" style="whiteSpace=wrap;html=1;rounded=1;shadow=0;strokeColor=#b85450;strokeWidth=1;fillColor=#f8cecc;glass=0;fontSize=15;" parent="WIyWlLk6GJQsqaUBKTNV-1" vertex="1">
          <mxGeometry y="320" width="211" height="42.5" as="geometry" />
        </mxCell>
        <mxCell id="teyGcw7DqHjlIo54tSY7-12" style="edgeStyle=orthogonalEdgeStyle;curved=0;rounded=1;sketch=0;orthogonalLoop=1;jettySize=auto;html=1;exitX=0.5;exitY=1;exitDx=0;exitDy=0;entryX=0.5;entryY=0;entryDx=0;entryDy=0;fontColor=#143642;strokeColor=#A8201A;fillColor=#FAE5C7;fontSize=15;" parent="WIyWlLk6GJQsqaUBKTNV-1" source="teyGcw7DqHjlIo54tSY7-9" target="teyGcw7DqHjlIo54tSY7-10" edge="1">
          <mxGeometry relative="1" as="geometry" />
        </mxCell>
        <mxCell id="teyGcw7DqHjlIo54tSY7-9" value="发送请求：env/production&lt;br style=&quot;font-size: 15px;&quot;&gt;获取srcType（产线类型）" style="whiteSpace=wrap;html=1;rounded=1;shadow=0;strokeColor=#b85450;strokeWidth=1;fillColor=#f8cecc;glass=0;fontSize=15;" parent="WIyWlLk6GJQsqaUBKTNV-1" vertex="1">
          <mxGeometry x="231" y="320" width="209" height="42.5" as="geometry" />
        </mxCell>
        <mxCell id="teyGcw7DqHjlIo54tSY7-14" value="" style="edgeStyle=orthogonalEdgeStyle;curved=0;rounded=1;sketch=0;orthogonalLoop=1;jettySize=auto;html=1;fontColor=#143642;strokeColor=#A8201A;fillColor=#FAE5C7;fontSize=15;" parent="WIyWlLk6GJQsqaUBKTNV-1" source="teyGcw7DqHjlIo54tSY7-10" target="teyGcw7DqHjlIo54tSY7-13" edge="1">
          <mxGeometry relative="1" as="geometry">
            <Array as="points">
              <mxPoint x="225" y="470" />
              <mxPoint x="225" y="470" />
            </Array>
          </mxGeometry>
        </mxCell>
        <mxCell id="teyGcw7DqHjlIo54tSY7-10" value="初始化全局API Host&lt;br style=&quot;font-size: 15px;&quot;&gt;用于发送请求时的地址" style="whiteSpace=wrap;html=1;rounded=1;shadow=0;fontColor=#143642;strokeColor=#0F8B8D;strokeWidth=1;fillColor=#FAE5C7;glass=0;fontSize=15;" parent="WIyWlLk6GJQsqaUBKTNV-1" vertex="1">
          <mxGeometry x="110" y="410" width="230" height="42.5" as="geometry" />
        </mxCell>
        <mxCell id="teyGcw7DqHjlIo54tSY7-16" value="" style="edgeStyle=orthogonalEdgeStyle;curved=0;rounded=1;sketch=0;orthogonalLoop=1;jettySize=auto;html=1;fontColor=#143642;strokeColor=#A8201A;fillColor=#FAE5C7;fontSize=15;" parent="WIyWlLk6GJQsqaUBKTNV-1" source="teyGcw7DqHjlIo54tSY7-13" target="teyGcw7DqHjlIo54tSY7-15" edge="1">
          <mxGeometry relative="1" as="geometry" />
        </mxCell>
        <mxCell id="teyGcw7DqHjlIo54tSY7-13" value="发送请求：task/detail&lt;br style=&quot;font-size: 15px;&quot;&gt;请求任务详细信息" style="whiteSpace=wrap;html=1;rounded=1;shadow=0;strokeColor=#b85450;strokeWidth=1;fillColor=#f8cecc;glass=0;fontSize=15;" parent="WIyWlLk6GJQsqaUBKTNV-1" vertex="1">
          <mxGeometry x="130" y="470" width="180" height="42.5" as="geometry" />
        </mxCell>
        <mxCell id="teyGcw7DqHjlIo54tSY7-18" value="" style="edgeStyle=orthogonalEdgeStyle;curved=0;rounded=1;sketch=0;orthogonalLoop=1;jettySize=auto;html=1;fontColor=#143642;strokeColor=#A8201A;fillColor=#FAE5C7;exitX=0.5;exitY=1;exitDx=0;exitDy=0;fontSize=15;" parent="WIyWlLk6GJQsqaUBKTNV-1" source="teyGcw7DqHjlIo54tSY7-15" target="teyGcw7DqHjlIo54tSY7-17" edge="1">
          <mxGeometry relative="1" as="geometry" />
        </mxCell>
        <mxCell id="teyGcw7DqHjlIo54tSY7-20" style="edgeStyle=orthogonalEdgeStyle;curved=0;rounded=1;sketch=0;orthogonalLoop=1;jettySize=auto;html=1;exitX=0.5;exitY=1;exitDx=0;exitDy=0;fontColor=#143642;strokeColor=#A8201A;fillColor=#FAE5C7;entryX=0.5;entryY=0;entryDx=0;entryDy=0;fontSize=15;" parent="WIyWlLk6GJQsqaUBKTNV-1" source="teyGcw7DqHjlIo54tSY7-15" target="teyGcw7DqHjlIo54tSY7-21" edge="1">
          <mxGeometry relative="1" as="geometry">
            <mxPoint x="120" y="720" as="targetPoint" />
            <Array as="points">
              <mxPoint x="220" y="700" />
              <mxPoint x="-148" y="700" />
            </Array>
          </mxGeometry>
        </mxCell>
        <mxCell id="teyGcw7DqHjlIo54tSY7-22" style="edgeStyle=orthogonalEdgeStyle;curved=0;rounded=1;sketch=0;orthogonalLoop=1;jettySize=auto;html=1;exitX=0.5;exitY=1;exitDx=0;exitDy=0;fontColor=#143642;strokeColor=#A8201A;fillColor=#FAE5C7;entryX=0.5;entryY=0;entryDx=0;entryDy=0;fontSize=15;" parent="WIyWlLk6GJQsqaUBKTNV-1" source="teyGcw7DqHjlIo54tSY7-15" target="teyGcw7DqHjlIo54tSY7-23" edge="1">
          <mxGeometry relative="1" as="geometry">
            <mxPoint x="220" y="690" as="targetPoint" />
            <Array as="points">
              <mxPoint x="220" y="700" />
              <mxPoint x="47" y="700" />
            </Array>
          </mxGeometry>
        </mxCell>
        <mxCell id="teyGcw7DqHjlIo54tSY7-24" style="edgeStyle=orthogonalEdgeStyle;curved=0;rounded=1;sketch=0;orthogonalLoop=1;jettySize=auto;html=1;exitX=0.5;exitY=1;exitDx=0;exitDy=0;fontColor=#143642;strokeColor=#A8201A;fillColor=#FAE5C7;fontSize=15;" parent="WIyWlLk6GJQsqaUBKTNV-1" source="teyGcw7DqHjlIo54tSY7-15" target="teyGcw7DqHjlIo54tSY7-19" edge="1">
          <mxGeometry relative="1" as="geometry" />
        </mxCell>
        <mxCell id="teyGcw7DqHjlIo54tSY7-25" style="edgeStyle=orthogonalEdgeStyle;curved=0;rounded=1;sketch=0;orthogonalLoop=1;jettySize=auto;html=1;exitX=0.5;exitY=1;exitDx=0;exitDy=0;fontColor=#143642;strokeColor=#A8201A;fillColor=#FAE5C7;entryX=0.5;entryY=0;entryDx=0;entryDy=0;fontSize=15;" parent="WIyWlLk6GJQsqaUBKTNV-1" source="teyGcw7DqHjlIo54tSY7-15" target="teyGcw7DqHjlIo54tSY7-26" edge="1">
          <mxGeometry relative="1" as="geometry">
            <mxPoint x="440" y="690" as="targetPoint" />
            <Array as="points">
              <mxPoint x="220" y="740" />
            </Array>
          </mxGeometry>
        </mxCell>
        <mxCell id="teyGcw7DqHjlIo54tSY7-15" value="初始化iD编辑器&lt;br style=&quot;font-size: 15px;&quot;&gt;（presets、imagery）" style="whiteSpace=wrap;html=1;rounded=1;shadow=0;fontColor=#143642;strokeColor=#0F8B8D;strokeWidth=1;fillColor=#FAE5C7;glass=0;fontSize=15;" parent="WIyWlLk6GJQsqaUBKTNV-1" vertex="1">
          <mxGeometry x="130" y="540" width="180" height="40" as="geometry" />
        </mxCell>
        <mxCell id="teyGcw7DqHjlIo54tSY7-35" style="edgeStyle=orthogonalEdgeStyle;curved=0;rounded=1;sketch=0;orthogonalLoop=1;jettySize=auto;html=1;exitX=0.5;exitY=1;exitDx=0;exitDy=0;entryX=0.5;entryY=0;entryDx=0;entryDy=0;fontColor=#143642;strokeColor=#A8201A;fillColor=#FAE5C7;fontSize=15;" parent="WIyWlLk6GJQsqaUBKTNV-1" source="teyGcw7DqHjlIo54tSY7-17" target="teyGcw7DqHjlIo54tSY7-33" edge="1">
          <mxGeometry relative="1" as="geometry">
            <Array as="points">
              <mxPoint x="330" y="880" />
              <mxPoint x="220" y="880" />
            </Array>
          </mxGeometry>
        </mxCell>
        <mxCell id="teyGcw7DqHjlIo54tSY7-17" value="预加载任务情报框" style="whiteSpace=wrap;html=1;rounded=1;shadow=0;fontColor=#143642;strokeColor=#0F8B8D;strokeWidth=1;fillColor=#FAE5C7;glass=0;fontSize=16;" parent="WIyWlLk6GJQsqaUBKTNV-1" vertex="1">
          <mxGeometry x="240" y="640" width="170" height="32.5" as="geometry" />
        </mxCell>
        <mxCell id="teyGcw7DqHjlIo54tSY7-36" style="edgeStyle=orthogonalEdgeStyle;curved=0;rounded=1;sketch=0;orthogonalLoop=1;jettySize=auto;html=1;exitX=0.5;exitY=1;exitDx=0;exitDy=0;entryX=0.5;entryY=0;entryDx=0;entryDy=0;fontColor=#143642;strokeColor=#A8201A;fillColor=#FAE5C7;fontSize=15;" parent="WIyWlLk6GJQsqaUBKTNV-1" source="teyGcw7DqHjlIo54tSY7-19" target="teyGcw7DqHjlIo54tSY7-33" edge="1">
          <mxGeometry relative="1" as="geometry">
            <Array as="points">
              <mxPoint x="520" y="880" />
              <mxPoint x="220" y="880" />
            </Array>
          </mxGeometry>
        </mxCell>
        <mxCell id="teyGcw7DqHjlIo54tSY7-19" value="预加载任务框区域路网" style="whiteSpace=wrap;html=1;rounded=1;shadow=0;fontColor=#143642;strokeColor=#0F8B8D;strokeWidth=1;fillColor=#FAE5C7;glass=0;fontSize=16;" parent="WIyWlLk6GJQsqaUBKTNV-1" vertex="1">
          <mxGeometry x="430" y="640" width="180" height="32.5" as="geometry" />
        </mxCell>
        <mxCell id="teyGcw7DqHjlIo54tSY7-28" value="" style="edgeStyle=orthogonalEdgeStyle;curved=0;rounded=1;sketch=0;orthogonalLoop=1;jettySize=auto;html=1;fontColor=#143642;strokeColor=#A8201A;fillColor=#FAE5C7;fontSize=16;" parent="WIyWlLk6GJQsqaUBKTNV-1" source="teyGcw7DqHjlIo54tSY7-21" target="teyGcw7DqHjlIo54tSY7-27" edge="1">
          <mxGeometry relative="1" as="geometry">
            <Array as="points">
              <mxPoint x="-140" y="800" />
              <mxPoint x="220" y="800" />
            </Array>
          </mxGeometry>
        </mxCell>
        <mxCell id="teyGcw7DqHjlIo54tSY7-21" value="发送请求：task/permission&lt;br style=&quot;font-size: 16px;&quot;&gt;获取权限配置文件" style="whiteSpace=wrap;html=1;rounded=1;shadow=0;strokeColor=#82b366;strokeWidth=1;fillColor=#d5e8d4;glass=0;fontSize=16;" parent="WIyWlLk6GJQsqaUBKTNV-1" vertex="1">
          <mxGeometry x="-250" y="735" width="204.5" height="42.5" as="geometry" />
        </mxCell>
        <mxCell id="teyGcw7DqHjlIo54tSY7-29" style="edgeStyle=orthogonalEdgeStyle;curved=0;rounded=1;sketch=0;orthogonalLoop=1;jettySize=auto;html=1;exitX=0.5;exitY=1;exitDx=0;exitDy=0;fontColor=#143642;strokeColor=#A8201A;fillColor=#FAE5C7;fontSize=16;" parent="WIyWlLk6GJQsqaUBKTNV-1" source="teyGcw7DqHjlIo54tSY7-23" edge="1">
          <mxGeometry relative="1" as="geometry">
            <mxPoint x="220" y="850" as="targetPoint" />
            <Array as="points">
              <mxPoint x="47" y="800" />
              <mxPoint x="220" y="800" />
            </Array>
          </mxGeometry>
        </mxCell>
        <mxCell id="teyGcw7DqHjlIo54tSY7-23" value="发送请求&lt;br style=&quot;font-size: 16px;&quot;&gt;获取apollo配置" style="whiteSpace=wrap;html=1;rounded=1;shadow=0;strokeColor=#82b366;strokeWidth=1;fillColor=#d5e8d4;glass=0;fontSize=16;" parent="WIyWlLk6GJQsqaUBKTNV-1" vertex="1">
          <mxGeometry x="-30" y="737" width="154.5" height="40" as="geometry" />
        </mxCell>
        <mxCell id="teyGcw7DqHjlIo54tSY7-30" style="edgeStyle=orthogonalEdgeStyle;curved=0;rounded=1;sketch=0;orthogonalLoop=1;jettySize=auto;html=1;exitX=0.5;exitY=1;exitDx=0;exitDy=0;fontColor=#143642;strokeColor=#A8201A;fillColor=#FAE5C7;fontSize=16;" parent="WIyWlLk6GJQsqaUBKTNV-1" source="teyGcw7DqHjlIo54tSY7-26" edge="1">
          <mxGeometry relative="1" as="geometry">
            <mxPoint x="220" y="850" as="targetPoint" />
          </mxGeometry>
        </mxCell>
        <mxCell id="teyGcw7DqHjlIo54tSY7-26" value="初始化工具栏通信&lt;br style=&quot;font-size: 16px;&quot;&gt;jschannel" style="whiteSpace=wrap;html=1;rounded=1;shadow=0;strokeColor=#82b366;strokeWidth=1;fillColor=#d5e8d4;glass=0;fontSize=16;" parent="WIyWlLk6GJQsqaUBKTNV-1" vertex="1">
          <mxGeometry x="142.75" y="736" width="154.5" height="40" as="geometry" />
        </mxCell>
        <mxCell id="teyGcw7DqHjlIo54tSY7-34" value="" style="edgeStyle=orthogonalEdgeStyle;curved=0;rounded=1;sketch=0;orthogonalLoop=1;jettySize=auto;html=1;fontColor=#143642;strokeColor=#A8201A;fillColor=#FAE5C7;fontSize=15;" parent="WIyWlLk6GJQsqaUBKTNV-1" source="teyGcw7DqHjlIo54tSY7-27" target="teyGcw7DqHjlIo54tSY7-33" edge="1">
          <mxGeometry relative="1" as="geometry" />
        </mxCell>
        <mxCell id="teyGcw7DqHjlIo54tSY7-27" value="加载UI布局" style="whiteSpace=wrap;html=1;rounded=1;shadow=0;strokeColor=#82b366;strokeWidth=1;fillColor=#d5e8d4;glass=0;fontSize=16;" parent="WIyWlLk6GJQsqaUBKTNV-1" vertex="1">
          <mxGeometry x="142.75" y="830" width="154.5" height="32.5" as="geometry" />
        </mxCell>
        <mxCell id="teyGcw7DqHjlIo54tSY7-97" style="edgeStyle=orthogonalEdgeStyle;curved=0;rounded=1;sketch=0;orthogonalLoop=1;jettySize=auto;html=1;exitX=0.5;exitY=1;exitDx=0;exitDy=0;entryX=0.5;entryY=0;entryDx=0;entryDy=0;fontSize=15;fontColor=#143642;strokeColor=#A8201A;fillColor=#FAE5C7;" parent="WIyWlLk6GJQsqaUBKTNV-1" source="teyGcw7DqHjlIo54tSY7-33" target="teyGcw7DqHjlIo54tSY7-38" edge="1">
          <mxGeometry relative="1" as="geometry">
            <Array as="points">
              <mxPoint x="220" y="960" />
              <mxPoint x="47" y="960" />
            </Array>
          </mxGeometry>
        </mxCell>
        <mxCell id="teyGcw7DqHjlIo54tSY7-100" style="edgeStyle=orthogonalEdgeStyle;curved=0;rounded=1;sketch=0;orthogonalLoop=1;jettySize=auto;html=1;exitX=0.5;exitY=1;exitDx=0;exitDy=0;fontSize=15;fontColor=#143642;strokeColor=#A8201A;fillColor=#FAE5C7;" parent="WIyWlLk6GJQsqaUBKTNV-1" source="teyGcw7DqHjlIo54tSY7-33" target="teyGcw7DqHjlIo54tSY7-98" edge="1">
          <mxGeometry relative="1" as="geometry" />
        </mxCell>
        <mxCell id="teyGcw7DqHjlIo54tSY7-101" style="edgeStyle=orthogonalEdgeStyle;curved=0;rounded=1;sketch=0;orthogonalLoop=1;jettySize=auto;html=1;exitX=0.5;exitY=1;exitDx=0;exitDy=0;entryX=0.5;entryY=0;entryDx=0;entryDy=0;fontSize=15;fontColor=#143642;strokeColor=#A8201A;fillColor=#FAE5C7;" parent="WIyWlLk6GJQsqaUBKTNV-1" source="teyGcw7DqHjlIo54tSY7-33" target="teyGcw7DqHjlIo54tSY7-99" edge="1">
          <mxGeometry relative="1" as="geometry">
            <Array as="points">
              <mxPoint x="220" y="960" />
              <mxPoint x="397" y="960" />
            </Array>
          </mxGeometry>
        </mxCell>
        <mxCell id="teyGcw7DqHjlIo54tSY7-33" value="页面布局搭建完成" style="whiteSpace=wrap;html=1;rounded=1;shadow=0;fontColor=#143642;strokeColor=#0F8B8D;strokeWidth=1;fillColor=#FAE5C7;glass=0;fontSize=15;" parent="WIyWlLk6GJQsqaUBKTNV-1" vertex="1">
          <mxGeometry x="142.75" y="900" width="154.5" height="32.5" as="geometry" />
        </mxCell>
        <mxCell id="teyGcw7DqHjlIo54tSY7-93" style="edgeStyle=orthogonalEdgeStyle;curved=0;rounded=1;sketch=0;orthogonalLoop=1;jettySize=auto;html=1;exitX=1;exitY=0.5;exitDx=0;exitDy=0;entryX=1;entryY=0.5;entryDx=0;entryDy=0;fontSize=13;fontColor=#143642;strokeColor=#A8201A;fillColor=#FAE5C7;" parent="WIyWlLk6GJQsqaUBKTNV-1" source="teyGcw7DqHjlIo54tSY7-106" target="teyGcw7DqHjlIo54tSY7-41" edge="1">
          <mxGeometry relative="1" as="geometry">
            <Array as="points">
              <mxPoint x="600" y="1126" />
              <mxPoint x="600" y="35" />
            </Array>
          </mxGeometry>
        </mxCell>
        <mxCell id="teyGcw7DqHjlIo54tSY7-38" value="地图瓦片加载" style="whiteSpace=wrap;html=1;rounded=1;shadow=0;fontColor=#143642;strokeColor=#0F8B8D;strokeWidth=1;fillColor=#FAE5C7;glass=0;fontSize=15;" parent="WIyWlLk6GJQsqaUBKTNV-1" vertex="1">
          <mxGeometry x="-30" y="980" width="154.5" height="32.5" as="geometry" />
        </mxCell>
        <mxCell id="teyGcw7DqHjlIo54tSY7-40" style="edgeStyle=orthogonalEdgeStyle;curved=0;rounded=1;sketch=0;orthogonalLoop=1;jettySize=auto;html=1;exitX=0.5;exitY=1;exitDx=0;exitDy=0;entryX=0.5;entryY=0;entryDx=0;entryDy=0;fontColor=#143642;strokeColor=#A8201A;fillColor=#FAE5C7;fontSize=16;" parent="WIyWlLk6GJQsqaUBKTNV-1" source="teyGcw7DqHjlIo54tSY7-39" target="WIyWlLk6GJQsqaUBKTNV-3" edge="1">
          <mxGeometry relative="1" as="geometry" />
        </mxCell>
        <mxCell id="teyGcw7DqHjlIo54tSY7-39" value="更改roadedit域名地址" style="rounded=1;whiteSpace=wrap;html=1;fontSize=16;glass=0;strokeWidth=1;shadow=0;fillColor=#FAE5C7;strokeColor=#0F8B8D;fontColor=#143642;" parent="WIyWlLk6GJQsqaUBKTNV-1" vertex="1">
          <mxGeometry x="140" y="70" width="160" height="30" as="geometry" />
        </mxCell>
        <mxCell id="teyGcw7DqHjlIo54tSY7-42" style="edgeStyle=orthogonalEdgeStyle;curved=0;rounded=1;sketch=0;orthogonalLoop=1;jettySize=auto;html=1;exitX=0.5;exitY=1;exitDx=0;exitDy=0;entryX=0.5;entryY=0;entryDx=0;entryDy=0;fontColor=#143642;strokeColor=#A8201A;fillColor=#FAE5C7;fontSize=16;" parent="WIyWlLk6GJQsqaUBKTNV-1" source="teyGcw7DqHjlIo54tSY7-41" target="teyGcw7DqHjlIo54tSY7-39" edge="1">
          <mxGeometry relative="1" as="geometry" />
        </mxCell>
        <mxCell id="teyGcw7DqHjlIo54tSY7-41" value="请求任务信息" style="rounded=1;whiteSpace=wrap;html=1;fontSize=16;glass=0;strokeWidth=1;shadow=0;fillColor=#d5e8d4;strokeColor=#82b366;" parent="WIyWlLk6GJQsqaUBKTNV-1" vertex="1">
          <mxGeometry x="140" y="20" width="160" height="30" as="geometry" />
        </mxCell>
        <mxCell id="teyGcw7DqHjlIo54tSY7-44" value="" style="endArrow=none;dashed=1;html=1;fontColor=#143642;strokeColor=#A8201A;fillColor=#FAE5C7;fontSize=13;" parent="WIyWlLk6GJQsqaUBKTNV-1" edge="1">
          <mxGeometry width="50" height="50" relative="1" as="geometry">
            <mxPoint x="-360" y="110" as="sourcePoint" />
            <mxPoint x="680" y="110" as="targetPoint" />
          </mxGeometry>
        </mxCell>
        <mxCell id="teyGcw7DqHjlIo54tSY7-45" value="任务工具栏加载" style="text;html=1;strokeColor=none;fillColor=none;align=center;verticalAlign=middle;whiteSpace=wrap;rounded=0;sketch=0;fontColor=#143642;fontSize=18;" parent="WIyWlLk6GJQsqaUBKTNV-1" vertex="1">
          <mxGeometry x="-351" y="30" width="140" height="20" as="geometry" />
        </mxCell>
        <mxCell id="teyGcw7DqHjlIo54tSY7-46" value="编辑平台加载" style="text;html=1;strokeColor=none;fillColor=none;align=center;verticalAlign=middle;whiteSpace=wrap;rounded=0;sketch=0;fontColor=#143642;fontSize=18;" parent="WIyWlLk6GJQsqaUBKTNV-1" vertex="1">
          <mxGeometry x="-336" y="125" width="110" height="20" as="geometry" />
        </mxCell>
        <mxCell id="teyGcw7DqHjlIo54tSY7-50" style="edgeStyle=orthogonalEdgeStyle;curved=0;rounded=1;sketch=0;orthogonalLoop=1;jettySize=auto;html=1;exitX=0.5;exitY=1;exitDx=0;exitDy=0;entryX=0;entryY=0.5;entryDx=0;entryDy=0;fontSize=15;fontColor=#143642;strokeColor=#A8201A;fillColor=#FAE5C7;" parent="WIyWlLk6GJQsqaUBKTNV-1" source="teyGcw7DqHjlIo54tSY7-48" target="teyGcw7DqHjlIo54tSY7-27" edge="1">
          <mxGeometry relative="1" as="geometry" />
        </mxCell>
        <mxCell id="teyGcw7DqHjlIo54tSY7-48" value="初始化iD编辑器&lt;br style=&quot;font-size: 13px;&quot;&gt;（presets、imagery）" style="whiteSpace=wrap;html=1;rounded=1;shadow=0;fontColor=#143642;strokeColor=#0F8B8D;strokeWidth=1;fillColor=#FAE5C7;glass=0;fontSize=13;" parent="WIyWlLk6GJQsqaUBKTNV-1" vertex="1">
          <mxGeometry x="-310" y="530" width="210" height="42.5" as="geometry" />
        </mxCell>
        <mxCell id="teyGcw7DqHjlIo54tSY7-51" value="否" style="text;html=1;strokeColor=none;fillColor=none;align=center;verticalAlign=middle;whiteSpace=wrap;rounded=0;sketch=0;fontSize=16;fontColor=#143642;" parent="WIyWlLk6GJQsqaUBKTNV-1" vertex="1">
          <mxGeometry x="110" y="225" width="40" height="20" as="geometry" />
        </mxCell>
        <mxCell id="teyGcw7DqHjlIo54tSY7-52" value="是" style="text;html=1;strokeColor=none;fillColor=none;align=center;verticalAlign=middle;whiteSpace=wrap;rounded=0;sketch=0;fontSize=16;fontColor=#143642;" parent="WIyWlLk6GJQsqaUBKTNV-1" vertex="1">
          <mxGeometry x="180" y="280" width="40" height="20" as="geometry" />
        </mxCell>
        <mxCell id="teyGcw7DqHjlIo54tSY7-82" style="edgeStyle=orthogonalEdgeStyle;curved=0;rounded=1;sketch=0;orthogonalLoop=1;jettySize=auto;html=1;exitX=0.5;exitY=1;exitDx=0;exitDy=0;entryX=0.5;entryY=0;entryDx=0;entryDy=0;fontSize=16;fontColor=#143642;strokeColor=#A8201A;fillColor=#FAE5C7;" parent="WIyWlLk6GJQsqaUBKTNV-1" source="teyGcw7DqHjlIo54tSY7-80" target="teyGcw7DqHjlIo54tSY7-41" edge="1">
          <mxGeometry relative="1" as="geometry" />
        </mxCell>
        <mxCell id="teyGcw7DqHjlIo54tSY7-80" value="加载任务工具栏资源" style="rounded=1;whiteSpace=wrap;html=1;fontSize=16;glass=0;strokeWidth=1;shadow=0;fillColor=#d5e8d4;strokeColor=#82b366;" parent="WIyWlLk6GJQsqaUBKTNV-1" vertex="1">
          <mxGeometry x="140" y="-30" width="160" height="30" as="geometry" />
        </mxCell>
        <mxCell id="teyGcw7DqHjlIo54tSY7-83" value="" style="endArrow=none;dashed=1;html=1;fontColor=#143642;strokeColor=#A8201A;fillColor=#FAE5C7;fontSize=13;" parent="WIyWlLk6GJQsqaUBKTNV-1" edge="1">
          <mxGeometry width="50" height="50" relative="1" as="geometry">
            <mxPoint x="-360" y="160" as="sourcePoint" />
            <mxPoint x="680" y="160" as="targetPoint" />
          </mxGeometry>
        </mxCell>
        <mxCell id="teyGcw7DqHjlIo54tSY7-84" value="编辑平台初始化" style="text;html=1;strokeColor=none;fillColor=none;align=center;verticalAlign=middle;whiteSpace=wrap;rounded=0;sketch=0;fontColor=#143642;fontSize=18;" parent="WIyWlLk6GJQsqaUBKTNV-1" vertex="1">
          <mxGeometry x="-346" y="200" width="135" height="20" as="geometry" />
        </mxCell>
        <mxCell id="teyGcw7DqHjlIo54tSY7-85" value="" style="endArrow=none;dashed=1;html=1;fontColor=#143642;strokeColor=#A8201A;fillColor=#FAE5C7;entryX=1;entryY=0;entryDx=0;entryDy=0;fontSize=13;" parent="WIyWlLk6GJQsqaUBKTNV-1" target="teyGcw7DqHjlIo54tSY7-92" edge="1">
          <mxGeometry width="50" height="50" relative="1" as="geometry">
            <mxPoint x="-360" y="820" as="sourcePoint" />
            <mxPoint x="730" y="820" as="targetPoint" />
          </mxGeometry>
        </mxCell>
        <mxCell id="teyGcw7DqHjlIo54tSY7-86" value="页面绘制" style="text;html=1;strokeColor=none;fillColor=none;align=center;verticalAlign=middle;whiteSpace=wrap;rounded=0;sketch=0;fontColor=#143642;fontSize=18;" parent="WIyWlLk6GJQsqaUBKTNV-1" vertex="1">
          <mxGeometry x="-361" y="862.5" width="135" height="20" as="geometry" />
        </mxCell>
        <mxCell id="teyGcw7DqHjlIo54tSY7-87" value="" style="endArrow=none;dashed=1;html=1;fontColor=#143642;strokeColor=#A8201A;fillColor=#FAE5C7;entryX=1;entryY=1;entryDx=0;entryDy=0;fontSize=13;" parent="WIyWlLk6GJQsqaUBKTNV-1" target="teyGcw7DqHjlIo54tSY7-92" edge="1">
          <mxGeometry width="50" height="50" relative="1" as="geometry">
            <mxPoint x="-360" y="940" as="sourcePoint" />
            <mxPoint x="730" y="940" as="targetPoint" />
          </mxGeometry>
        </mxCell>
        <mxCell id="teyGcw7DqHjlIo54tSY7-104" value="" style="edgeStyle=orthogonalEdgeStyle;curved=0;rounded=1;sketch=0;orthogonalLoop=1;jettySize=auto;html=1;fontSize=15;fontColor=#143642;strokeColor=#A8201A;fillColor=#FAE5C7;" parent="WIyWlLk6GJQsqaUBKTNV-1" source="teyGcw7DqHjlIo54tSY7-98" target="teyGcw7DqHjlIo54tSY7-103" edge="1">
          <mxGeometry relative="1" as="geometry" />
        </mxCell>
        <mxCell id="teyGcw7DqHjlIo54tSY7-98" value="地图路网绘制" style="whiteSpace=wrap;html=1;rounded=1;shadow=0;fontColor=#143642;strokeColor=#0F8B8D;strokeWidth=1;fillColor=#FAE5C7;glass=0;fontSize=15;" parent="WIyWlLk6GJQsqaUBKTNV-1" vertex="1">
          <mxGeometry x="142.75" y="980" width="154.5" height="32.5" as="geometry" />
        </mxCell>
        <mxCell id="teyGcw7DqHjlIo54tSY7-99" value="任务情报框渲染到页面" style="whiteSpace=wrap;html=1;rounded=1;shadow=0;fontColor=#143642;strokeColor=#0F8B8D;strokeWidth=1;fillColor=#FAE5C7;glass=0;fontSize=15;" parent="WIyWlLk6GJQsqaUBKTNV-1" vertex="1">
          <mxGeometry x="320" y="980" width="154.5" height="32.5" as="geometry" />
        </mxCell>
        <mxCell id="teyGcw7DqHjlIo54tSY7-107" style="edgeStyle=orthogonalEdgeStyle;curved=0;rounded=1;sketch=0;orthogonalLoop=1;jettySize=auto;html=1;exitX=0.5;exitY=1;exitDx=0;exitDy=0;fontSize=15;fontColor=#143642;strokeColor=#A8201A;fillColor=#FAE5C7;dashed=1;" parent="WIyWlLk6GJQsqaUBKTNV-1" source="teyGcw7DqHjlIo54tSY7-103" target="teyGcw7DqHjlIo54tSY7-106" edge="1">
          <mxGeometry relative="1" as="geometry" />
        </mxCell>
        <mxCell id="teyGcw7DqHjlIo54tSY7-103" value="开始作业" style="whiteSpace=wrap;html=1;rounded=1;shadow=0;fontColor=#143642;strokeColor=#0F8B8D;strokeWidth=1;fillColor=#FAE5C7;glass=0;fontSize=15;" parent="WIyWlLk6GJQsqaUBKTNV-1" vertex="1">
          <mxGeometry x="142.75" y="1050" width="154.5" height="32.5" as="geometry" />
        </mxCell>
        <mxCell id="teyGcw7DqHjlIo54tSY7-106" value="提交作业" style="whiteSpace=wrap;html=1;rounded=1;shadow=0;fontColor=#143642;strokeColor=#0F8B8D;strokeWidth=1;fillColor=#FAE5C7;glass=0;fontSize=15;" parent="WIyWlLk6GJQsqaUBKTNV-1" vertex="1">
          <mxGeometry x="142.75" y="1110" width="154.5" height="32.5" as="geometry" />
        </mxCell>
        <mxCell id="teyGcw7DqHjlIo54tSY7-109" value="" style="endArrow=none;dashed=1;html=1;fontColor=#143642;strokeColor=#A8201A;fillColor=#FAE5C7;entryX=1;entryY=1;entryDx=0;entryDy=0;fontSize=13;" parent="WIyWlLk6GJQsqaUBKTNV-1" edge="1">
          <mxGeometry width="50" height="50" relative="1" as="geometry">
            <mxPoint x="-360" y="1030" as="sourcePoint" />
            <mxPoint x="680" y="1030" as="targetPoint" />
          </mxGeometry>
        </mxCell>
        <mxCell id="teyGcw7DqHjlIo54tSY7-111" value="地图加载" style="text;html=1;strokeColor=none;fillColor=none;align=center;verticalAlign=middle;whiteSpace=wrap;rounded=0;sketch=0;fontColor=#143642;fontSize=18;" parent="WIyWlLk6GJQsqaUBKTNV-1" vertex="1">
          <mxGeometry x="-361" y="975" width="135" height="20" as="geometry" />
        </mxCell>
        <mxCell id="teyGcw7DqHjlIo54tSY7-112" value="任务情报加载" style="text;html=1;strokeColor=none;fillColor=none;align=center;verticalAlign=middle;whiteSpace=wrap;rounded=0;sketch=0;fontColor=#143642;fontSize=15;" parent="WIyWlLk6GJQsqaUBKTNV-1" vertex="1">
          <mxGeometry x="427.5" y="950" width="135" height="20" as="geometry" />
        </mxCell>
        <mxCell id="teyGcw7DqHjlIo54tSY7-113" value="作业" style="text;html=1;strokeColor=none;fillColor=none;align=center;verticalAlign=middle;whiteSpace=wrap;rounded=0;sketch=0;fontColor=#143642;fontSize=18;" parent="WIyWlLk6GJQsqaUBKTNV-1" vertex="1">
          <mxGeometry x="-361" y="1085" width="135" height="20" as="geometry" />
        </mxCell>
        <mxCell id="teyGcw7DqHjlIo54tSY7-118" value="" style="edgeStyle=orthogonalEdgeStyle;curved=0;rounded=1;sketch=0;orthogonalLoop=1;jettySize=auto;html=1;dashed=1;fontSize=12;fontColor=#143642;strokeColor=#A8201A;fillColor=#FAE5C7;" parent="WIyWlLk6GJQsqaUBKTNV-1" source="teyGcw7DqHjlIo54tSY7-114" target="teyGcw7DqHjlIo54tSY7-117" edge="1">
          <mxGeometry relative="1" as="geometry" />
        </mxCell>
        <mxCell id="teyGcw7DqHjlIo54tSY7-114" value="任务工具栏加载" style="rounded=1;shadow=0;fontColor=#143642;strokeColor=#0F8B8D;strokeWidth=1;fillColor=#FAE5C7;glass=0;verticalAlign=middle;horizontal=1;align=center;sketch=0;textDirection=rtl;labelPosition=center;verticalLabelPosition=middle;html=1;whiteSpace=wrap;fontSize=12;" parent="WIyWlLk6GJQsqaUBKTNV-1" vertex="1">
          <mxGeometry x="-1065" y="811.88" width="20" height="122.5" as="geometry" />
        </mxCell>
        <mxCell id="teyGcw7DqHjlIo54tSY7-120" value="" style="edgeStyle=orthogonalEdgeStyle;curved=0;rounded=1;sketch=0;orthogonalLoop=1;jettySize=auto;html=1;dashed=1;fontSize=12;fontColor=#143642;strokeColor=#A8201A;fillColor=#FAE5C7;" parent="WIyWlLk6GJQsqaUBKTNV-1" source="teyGcw7DqHjlIo54tSY7-117" target="teyGcw7DqHjlIo54tSY7-119" edge="1">
          <mxGeometry relative="1" as="geometry" />
        </mxCell>
        <mxCell id="teyGcw7DqHjlIo54tSY7-117" value="编辑加载" style="rounded=1;shadow=0;fontColor=#143642;strokeColor=#0F8B8D;strokeWidth=1;fillColor=#FAE5C7;glass=0;verticalAlign=middle;horizontal=1;align=center;sketch=0;textDirection=rtl;labelPosition=center;verticalLabelPosition=middle;html=1;whiteSpace=wrap;fontSize=12;" parent="WIyWlLk6GJQsqaUBKTNV-1" vertex="1">
          <mxGeometry x="-1015" y="811.88" width="20" height="122.5" as="geometry" />
        </mxCell>
        <mxCell id="teyGcw7DqHjlIo54tSY7-122" value="" style="edgeStyle=orthogonalEdgeStyle;curved=0;rounded=1;sketch=0;orthogonalLoop=1;jettySize=auto;html=1;dashed=1;fontSize=12;fontColor=#143642;strokeColor=#A8201A;fillColor=#FAE5C7;" parent="WIyWlLk6GJQsqaUBKTNV-1" source="teyGcw7DqHjlIo54tSY7-119" target="teyGcw7DqHjlIo54tSY7-121" edge="1">
          <mxGeometry relative="1" as="geometry" />
        </mxCell>
        <mxCell id="teyGcw7DqHjlIo54tSY7-119" value="编辑初平台始化" style="rounded=1;shadow=0;fontColor=#143642;strokeColor=#0F8B8D;strokeWidth=1;fillColor=#FAE5C7;glass=0;verticalAlign=middle;horizontal=1;align=center;sketch=0;textDirection=rtl;labelPosition=center;verticalLabelPosition=middle;html=1;whiteSpace=wrap;fontSize=12;" parent="WIyWlLk6GJQsqaUBKTNV-1" vertex="1">
          <mxGeometry x="-965" y="811.88" width="20" height="122.5" as="geometry" />
        </mxCell>
        <mxCell id="teyGcw7DqHjlIo54tSY7-124" value="" style="edgeStyle=orthogonalEdgeStyle;curved=0;rounded=1;sketch=0;orthogonalLoop=1;jettySize=auto;html=1;dashed=1;fontSize=12;fontColor=#143642;strokeColor=#A8201A;fillColor=#FAE5C7;" parent="WIyWlLk6GJQsqaUBKTNV-1" source="teyGcw7DqHjlIo54tSY7-121" target="teyGcw7DqHjlIo54tSY7-123" edge="1">
          <mxGeometry relative="1" as="geometry" />
        </mxCell>
        <mxCell id="teyGcw7DqHjlIo54tSY7-125" style="edgeStyle=orthogonalEdgeStyle;curved=0;rounded=1;sketch=0;orthogonalLoop=1;jettySize=auto;html=1;exitX=1;exitY=0.5;exitDx=0;exitDy=0;dashed=1;fontSize=12;fontColor=#143642;strokeColor=#A8201A;fillColor=#FAE5C7;entryX=0;entryY=0.5;entryDx=0;entryDy=0;" parent="WIyWlLk6GJQsqaUBKTNV-1" source="teyGcw7DqHjlIo54tSY7-121" target="teyGcw7DqHjlIo54tSY7-126" edge="1">
          <mxGeometry relative="1" as="geometry">
            <mxPoint x="-865" y="924.38" as="targetPoint" />
          </mxGeometry>
        </mxCell>
        <mxCell id="teyGcw7DqHjlIo54tSY7-121" value="页面绘制" style="rounded=1;shadow=0;fontColor=#143642;strokeColor=#0F8B8D;strokeWidth=1;fillColor=#FAE5C7;glass=0;verticalAlign=middle;horizontal=1;align=center;sketch=0;textDirection=rtl;labelPosition=center;verticalLabelPosition=middle;html=1;whiteSpace=wrap;fontSize=12;" parent="WIyWlLk6GJQsqaUBKTNV-1" vertex="1">
          <mxGeometry x="-915" y="811.88" width="20" height="122.5" as="geometry" />
        </mxCell>
        <mxCell id="teyGcw7DqHjlIo54tSY7-128" value="" style="edgeStyle=orthogonalEdgeStyle;curved=0;rounded=1;sketch=0;orthogonalLoop=1;jettySize=auto;html=1;dashed=1;fontSize=12;fontColor=#143642;strokeColor=#A8201A;fillColor=#FAE5C7;" parent="WIyWlLk6GJQsqaUBKTNV-1" source="teyGcw7DqHjlIo54tSY7-123" target="teyGcw7DqHjlIo54tSY7-127" edge="1">
          <mxGeometry relative="1" as="geometry" />
        </mxCell>
        <mxCell id="teyGcw7DqHjlIo54tSY7-123" value="地图加载" style="rounded=1;shadow=0;fontColor=#143642;strokeColor=#0F8B8D;strokeWidth=1;fillColor=#FAE5C7;glass=0;verticalAlign=middle;horizontal=1;align=center;sketch=0;textDirection=rtl;labelPosition=center;verticalLabelPosition=middle;html=1;whiteSpace=wrap;fontSize=12;" parent="WIyWlLk6GJQsqaUBKTNV-1" vertex="1">
          <mxGeometry x="-855" y="738.13" width="20" height="122.5" as="geometry" />
        </mxCell>
        <mxCell id="teyGcw7DqHjlIo54tSY7-129" style="edgeStyle=orthogonalEdgeStyle;curved=0;rounded=1;sketch=0;orthogonalLoop=1;jettySize=auto;html=1;exitX=1;exitY=0.5;exitDx=0;exitDy=0;entryX=0;entryY=0.5;entryDx=0;entryDy=0;dashed=1;fontSize=12;fontColor=#143642;strokeColor=#A8201A;fillColor=#FAE5C7;" parent="WIyWlLk6GJQsqaUBKTNV-1" source="teyGcw7DqHjlIo54tSY7-126" target="teyGcw7DqHjlIo54tSY7-127" edge="1">
          <mxGeometry relative="1" as="geometry" />
        </mxCell>
        <mxCell id="teyGcw7DqHjlIo54tSY7-126" value="任务情报加载" style="rounded=1;shadow=0;fontColor=#143642;strokeColor=#0F8B8D;strokeWidth=1;fillColor=#FAE5C7;glass=0;verticalAlign=middle;horizontal=1;align=center;sketch=0;textDirection=rtl;labelPosition=center;verticalLabelPosition=middle;html=1;whiteSpace=wrap;fontSize=12;" parent="WIyWlLk6GJQsqaUBKTNV-1" vertex="1">
          <mxGeometry x="-855" y="884.38" width="20" height="122.5" as="geometry" />
        </mxCell>
        <mxCell id="teyGcw7DqHjlIo54tSY7-127" value="作业" style="rounded=1;shadow=0;fontColor=#143642;strokeColor=#0F8B8D;strokeWidth=1;fillColor=#FAE5C7;glass=0;verticalAlign=middle;horizontal=1;align=center;sketch=0;textDirection=rtl;labelPosition=center;verticalLabelPosition=middle;html=1;whiteSpace=wrap;fontSize=12;" parent="WIyWlLk6GJQsqaUBKTNV-1" vertex="1">
          <mxGeometry x="-795" y="811.88" width="20" height="122.5" as="geometry" />
        </mxCell>
        <mxCell id="teyGcw7DqHjlIo54tSY7-131" value="作业中" style="rounded=0;whiteSpace=wrap;html=1;shadow=0;glass=0;sketch=0;fontSize=12;strokeColor=#82b366;fillColor=#d5e8d4;align=center;" parent="WIyWlLk6GJQsqaUBKTNV-1" vertex="1">
          <mxGeometry x="-1110" y="547" width="160" height="37.5" as="geometry" />
        </mxCell>
        <mxCell id="teyGcw7DqHjlIo54tSY7-132" value="作业间隔" style="rounded=0;whiteSpace=wrap;html=1;shadow=0;glass=0;sketch=0;fontSize=12;strokeColor=#b85450;fillColor=#f8cecc;align=center;" parent="WIyWlLk6GJQsqaUBKTNV-1" vertex="1">
          <mxGeometry x="-950" y="547" width="60" height="37.5" as="geometry" />
        </mxCell>
        <mxCell id="teyGcw7DqHjlIo54tSY7-133" value="作业中" style="rounded=0;whiteSpace=wrap;html=1;shadow=0;glass=0;sketch=0;fontSize=12;strokeColor=#82b366;fillColor=#d5e8d4;align=center;" parent="WIyWlLk6GJQsqaUBKTNV-1" vertex="1">
          <mxGeometry x="-890" y="547" width="160" height="37.5" as="geometry" />
        </mxCell>
        <mxCell id="teyGcw7DqHjlIo54tSY7-134" value="作业间隔" style="rounded=0;whiteSpace=wrap;html=1;shadow=0;glass=0;sketch=0;fontSize=12;strokeColor=#b85450;fillColor=#f8cecc;align=center;" parent="WIyWlLk6GJQsqaUBKTNV-1" vertex="1">
          <mxGeometry x="-732" y="547" width="60" height="37.5" as="geometry" />
        </mxCell>
        <mxCell id="teyGcw7DqHjlIo54tSY7-135" value="作业中" style="rounded=0;whiteSpace=wrap;html=1;shadow=0;glass=0;sketch=0;fontSize=12;strokeColor=#82b366;fillColor=#d5e8d4;align=center;" parent="WIyWlLk6GJQsqaUBKTNV-1" vertex="1">
          <mxGeometry x="-672" y="547" width="160" height="37.5" as="geometry" />
        </mxCell>
        <mxCell id="teyGcw7DqHjlIo54tSY7-137" value="" style="shape=curlyBracket;whiteSpace=wrap;html=1;rounded=1;shadow=0;glass=0;sketch=0;fontSize=12;fontColor=#143642;strokeColor=#0F8B8D;fillColor=#FAE5C7;align=left;rotation=90;" parent="WIyWlLk6GJQsqaUBKTNV-1" vertex="1">
          <mxGeometry x="-928.07" y="458.06" width="21.5" height="306.88" as="geometry" />
        </mxCell>
        <mxCell id="teyGcw7DqHjlIo54tSY7-138" value="任务切换" style="rounded=0;whiteSpace=wrap;html=1;shadow=0;glass=0;sketch=0;fontSize=12;strokeColor=#d79b00;fillColor=#ffe6cc;align=center;" parent="WIyWlLk6GJQsqaUBKTNV-1" vertex="1">
          <mxGeometry x="-1100" y="680" width="68.57" height="37.5" as="geometry" />
        </mxCell>
        <mxCell id="teyGcw7DqHjlIo54tSY7-139" value="编辑平台刷新" style="rounded=0;whiteSpace=wrap;html=1;shadow=0;glass=0;sketch=0;fontSize=12;strokeColor=#23445d;fillColor=#bac8d3;align=center;" parent="WIyWlLk6GJQsqaUBKTNV-1" vertex="1">
          <mxGeometry x="-1027" y="680" width="267" height="37.5" as="geometry" />
        </mxCell>
        <mxCell id="teyGcw7DqHjlIo54tSY7-143" value="无效作业时间" style="text;html=1;strokeColor=none;fillColor=none;align=center;verticalAlign=middle;whiteSpace=wrap;rounded=0;shadow=0;glass=0;sketch=0;fontSize=12;fontColor=#143642;" parent="WIyWlLk6GJQsqaUBKTNV-1" vertex="1">
          <mxGeometry x="-958.5" y="492.5" width="77" height="20" as="geometry" />
        </mxCell>
        <mxCell id="teyGcw7DqHjlIo54tSY7-146" value="" style="endArrow=classic;html=1;dashed=1;fontSize=12;fontColor=#143642;strokeColor=#A8201A;fillColor=#FAE5C7;" parent="WIyWlLk6GJQsqaUBKTNV-1" edge="1">
          <mxGeometry width="50" height="50" relative="1" as="geometry">
            <mxPoint x="-920" y="520" as="sourcePoint" />
            <mxPoint x="-920" y="540" as="targetPoint" />
          </mxGeometry>
        </mxCell>
        <mxCell id="teyGcw7DqHjlIo54tSY7-149" value="" style="rounded=0;whiteSpace=wrap;html=1;shadow=0;glass=0;sketch=0;fontSize=12;strokeColor=#23445d;fillColor=#bac8d3;align=center;" parent="WIyWlLk6GJQsqaUBKTNV-1" vertex="1">
          <mxGeometry x="-1027" y="1237.5" width="267" height="302.5" as="geometry" />
        </mxCell>
        <mxCell id="teyGcw7DqHjlIo54tSY7-150" value="" style="rounded=0;whiteSpace=wrap;html=1;shadow=0;glass=0;sketch=0;fontSize=12;strokeColor=#d79b00;fillColor=#ffe6cc;align=center;" parent="WIyWlLk6GJQsqaUBKTNV-1" vertex="1">
          <mxGeometry x="-1110" y="1237.5" width="78.57" height="302.5" as="geometry" />
        </mxCell>
        <mxCell id="teyGcw7DqHjlIo54tSY7-151" value="" style="edgeStyle=orthogonalEdgeStyle;curved=0;rounded=1;sketch=0;orthogonalLoop=1;jettySize=auto;html=1;dashed=1;fontSize=12;fontColor=#143642;strokeColor=#A8201A;fillColor=#FAE5C7;" parent="WIyWlLk6GJQsqaUBKTNV-1" source="teyGcw7DqHjlIo54tSY7-152" target="teyGcw7DqHjlIo54tSY7-154" edge="1">
          <mxGeometry relative="1" as="geometry" />
        </mxCell>
        <mxCell id="teyGcw7DqHjlIo54tSY7-152" value="请求任务信息数据" style="rounded=1;shadow=0;fontColor=#143642;strokeColor=#0F8B8D;strokeWidth=1;fillColor=#FAE5C7;glass=0;verticalAlign=middle;horizontal=1;align=center;sketch=0;textDirection=rtl;labelPosition=center;verticalLabelPosition=middle;html=1;whiteSpace=wrap;fontSize=12;" parent="WIyWlLk6GJQsqaUBKTNV-1" vertex="1">
          <mxGeometry x="-1100" y="1331.88" width="20" height="122.5" as="geometry" />
        </mxCell>
        <mxCell id="teyGcw7DqHjlIo54tSY7-153" value="" style="edgeStyle=orthogonalEdgeStyle;curved=0;rounded=1;sketch=0;orthogonalLoop=1;jettySize=auto;html=1;dashed=1;fontSize=12;fontColor=#143642;strokeColor=#A8201A;fillColor=#FAE5C7;" parent="WIyWlLk6GJQsqaUBKTNV-1" source="teyGcw7DqHjlIo54tSY7-154" target="teyGcw7DqHjlIo54tSY7-156" edge="1">
          <mxGeometry relative="1" as="geometry" />
        </mxCell>
        <mxCell id="teyGcw7DqHjlIo54tSY7-154" value="编辑更新状态" style="rounded=1;shadow=0;fontColor=#143642;strokeColor=#0F8B8D;strokeWidth=1;fillColor=#FAE5C7;glass=0;verticalAlign=middle;horizontal=1;align=center;sketch=0;textDirection=rtl;labelPosition=center;verticalLabelPosition=middle;html=1;whiteSpace=wrap;fontSize=12;" parent="WIyWlLk6GJQsqaUBKTNV-1" vertex="1">
          <mxGeometry x="-1015" y="1331.88" width="20" height="122.5" as="geometry" />
        </mxCell>
        <mxCell id="teyGcw7DqHjlIo54tSY7-155" value="" style="edgeStyle=orthogonalEdgeStyle;curved=0;rounded=1;sketch=0;orthogonalLoop=1;jettySize=auto;html=1;dashed=1;fontSize=12;fontColor=#143642;strokeColor=#A8201A;fillColor=#FAE5C7;" parent="WIyWlLk6GJQsqaUBKTNV-1" source="teyGcw7DqHjlIo54tSY7-156" target="teyGcw7DqHjlIo54tSY7-159" edge="1">
          <mxGeometry relative="1" as="geometry" />
        </mxCell>
        <mxCell id="teyGcw7DqHjlIo54tSY7-156" value="编辑初始化" style="rounded=1;shadow=0;fontColor=#143642;strokeColor=#0F8B8D;strokeWidth=1;fillColor=#FAE5C7;glass=0;verticalAlign=middle;horizontal=1;align=center;sketch=0;textDirection=rtl;labelPosition=center;verticalLabelPosition=middle;html=1;whiteSpace=wrap;fontSize=12;" parent="WIyWlLk6GJQsqaUBKTNV-1" vertex="1">
          <mxGeometry x="-965" y="1331.88" width="20" height="122.5" as="geometry" />
        </mxCell>
        <mxCell id="teyGcw7DqHjlIo54tSY7-157" value="" style="edgeStyle=orthogonalEdgeStyle;curved=0;rounded=1;sketch=0;orthogonalLoop=1;jettySize=auto;html=1;dashed=1;fontSize=12;fontColor=#143642;strokeColor=#A8201A;fillColor=#FAE5C7;" parent="WIyWlLk6GJQsqaUBKTNV-1" source="teyGcw7DqHjlIo54tSY7-159" target="teyGcw7DqHjlIo54tSY7-161" edge="1">
          <mxGeometry relative="1" as="geometry" />
        </mxCell>
        <mxCell id="teyGcw7DqHjlIo54tSY7-158" style="edgeStyle=orthogonalEdgeStyle;curved=0;rounded=1;sketch=0;orthogonalLoop=1;jettySize=auto;html=1;exitX=1;exitY=0.5;exitDx=0;exitDy=0;dashed=1;fontSize=12;fontColor=#143642;strokeColor=#A8201A;fillColor=#FAE5C7;entryX=0;entryY=0.5;entryDx=0;entryDy=0;" parent="WIyWlLk6GJQsqaUBKTNV-1" source="teyGcw7DqHjlIo54tSY7-159" target="teyGcw7DqHjlIo54tSY7-163" edge="1">
          <mxGeometry relative="1" as="geometry">
            <mxPoint x="-865" y="1444.38" as="targetPoint" />
          </mxGeometry>
        </mxCell>
        <mxCell id="teyGcw7DqHjlIo54tSY7-159" value="组件状态更新" style="rounded=1;shadow=0;fontColor=#143642;strokeColor=#0F8B8D;strokeWidth=1;fillColor=#FAE5C7;glass=0;verticalAlign=middle;horizontal=1;align=center;sketch=0;textDirection=rtl;labelPosition=center;verticalLabelPosition=middle;html=1;whiteSpace=wrap;fontSize=12;" parent="WIyWlLk6GJQsqaUBKTNV-1" vertex="1">
          <mxGeometry x="-915" y="1331.88" width="20" height="122.5" as="geometry" />
        </mxCell>
        <mxCell id="teyGcw7DqHjlIo54tSY7-160" value="" style="edgeStyle=orthogonalEdgeStyle;curved=0;rounded=1;sketch=0;orthogonalLoop=1;jettySize=auto;html=1;dashed=1;fontSize=12;fontColor=#143642;strokeColor=#A8201A;fillColor=#FAE5C7;" parent="WIyWlLk6GJQsqaUBKTNV-1" source="teyGcw7DqHjlIo54tSY7-161" target="teyGcw7DqHjlIo54tSY7-164" edge="1">
          <mxGeometry relative="1" as="geometry" />
        </mxCell>
        <mxCell id="teyGcw7DqHjlIo54tSY7-161" value="地图状态更新" style="rounded=1;shadow=0;fontColor=#143642;strokeColor=#0F8B8D;strokeWidth=1;fillColor=#FAE5C7;glass=0;verticalAlign=middle;horizontal=1;align=center;sketch=0;textDirection=rtl;labelPosition=center;verticalLabelPosition=middle;html=1;whiteSpace=wrap;fontSize=12;" parent="WIyWlLk6GJQsqaUBKTNV-1" vertex="1">
          <mxGeometry x="-855" y="1258.13" width="20" height="122.5" as="geometry" />
        </mxCell>
        <mxCell id="teyGcw7DqHjlIo54tSY7-162" style="edgeStyle=orthogonalEdgeStyle;curved=0;rounded=1;sketch=0;orthogonalLoop=1;jettySize=auto;html=1;exitX=1;exitY=0.5;exitDx=0;exitDy=0;entryX=0;entryY=0.5;entryDx=0;entryDy=0;dashed=1;fontSize=12;fontColor=#143642;strokeColor=#A8201A;fillColor=#FAE5C7;" parent="WIyWlLk6GJQsqaUBKTNV-1" source="teyGcw7DqHjlIo54tSY7-163" target="teyGcw7DqHjlIo54tSY7-164" edge="1">
          <mxGeometry relative="1" as="geometry" />
        </mxCell>
        <mxCell id="teyGcw7DqHjlIo54tSY7-163" value="任务情报加载" style="rounded=1;shadow=0;fontColor=#143642;strokeColor=#0F8B8D;strokeWidth=1;fillColor=#FAE5C7;glass=0;verticalAlign=middle;horizontal=1;align=center;sketch=0;textDirection=rtl;labelPosition=center;verticalLabelPosition=middle;html=1;whiteSpace=wrap;fontSize=12;" parent="WIyWlLk6GJQsqaUBKTNV-1" vertex="1">
          <mxGeometry x="-855" y="1404.38" width="20" height="122.5" as="geometry" />
        </mxCell>
        <mxCell id="teyGcw7DqHjlIo54tSY7-164" value="作业" style="rounded=1;shadow=0;fontColor=#143642;strokeColor=#0F8B8D;strokeWidth=1;fillColor=#FAE5C7;glass=0;verticalAlign=middle;horizontal=1;align=center;sketch=0;textDirection=rtl;labelPosition=center;verticalLabelPosition=middle;html=1;whiteSpace=wrap;fontSize=12;" parent="WIyWlLk6GJQsqaUBKTNV-1" vertex="1">
          <mxGeometry x="-795" y="1331.88" width="20" height="122.5" as="geometry" />
        </mxCell>
        <mxCell id="teyGcw7DqHjlIo54tSY7-165" value="任务工具栏" style="rounded=0;whiteSpace=wrap;html=1;shadow=0;glass=0;sketch=0;fontSize=12;strokeColor=#d79b00;fillColor=#ffe6cc;align=center;" parent="WIyWlLk6GJQsqaUBKTNV-1" vertex="1">
          <mxGeometry x="-1110" y="1200" width="78.57" height="37.5" as="geometry" />
        </mxCell>
        <mxCell id="teyGcw7DqHjlIo54tSY7-166" value="编辑平台" style="rounded=0;whiteSpace=wrap;html=1;shadow=0;glass=0;sketch=0;fontSize=12;strokeColor=#23445d;fillColor=#bac8d3;align=center;" parent="WIyWlLk6GJQsqaUBKTNV-1" vertex="1">
          <mxGeometry x="-1027" y="1200" width="267" height="37.5" as="geometry" />
        </mxCell>
        <mxCell id="teyGcw7DqHjlIo54tSY7-167" value="发送信息给编辑" style="rounded=1;shadow=0;fontColor=#143642;strokeColor=#0F8B8D;strokeWidth=1;fillColor=#FAE5C7;glass=0;verticalAlign=middle;horizontal=1;align=center;sketch=0;textDirection=rtl;labelPosition=center;verticalLabelPosition=middle;html=1;whiteSpace=wrap;fontSize=12;" parent="WIyWlLk6GJQsqaUBKTNV-1" vertex="1">
          <mxGeometry x="-1065" y="1331.88" width="20" height="122.5" as="geometry" />
        </mxCell>
        <mxCell id="teyGcw7DqHjlIo54tSY7-168" value="&lt;font color=&quot;#000000&quot;&gt;任务工具栏&lt;/font&gt;" style="rounded=1;whiteSpace=wrap;html=1;strokeWidth=2;fillWeight=4;hachureGap=8;hachureAngle=45;fillColor=#f5f5f5;sketch=1;shadow=0;glass=0;fontSize=12;align=center;strokeColor=#666666;fontColor=#333333;" parent="WIyWlLk6GJQsqaUBKTNV-1" vertex="1">
          <mxGeometry x="-600" y="1280" width="180" height="40" as="geometry" />
        </mxCell>
        <mxCell id="teyGcw7DqHjlIo54tSY7-169" value="&lt;font color=&quot;#000000&quot;&gt;编辑平台&lt;/font&gt;" style="rounded=1;whiteSpace=wrap;html=1;strokeWidth=2;fillWeight=4;hachureGap=8;hachureAngle=45;sketch=1;shadow=0;glass=0;fontSize=12;align=center;fillColor=#dae8fc;strokeColor=#6c8ebf;" parent="WIyWlLk6GJQsqaUBKTNV-1" vertex="1">
          <mxGeometry x="-600" y="1400" width="180" height="40" as="geometry" />
        </mxCell>
        <mxCell id="teyGcw7DqHjlIo54tSY7-171" value="" style="shape=flexArrow;endArrow=classic;html=1;dashed=1;fontSize=12;fontColor=#143642;strokeColor=#A8201A;fillColor=#FAE5C7;width=19.166666666666668;endSize=5.091666666666667;endWidth=43.19444444444444;" parent="WIyWlLk6GJQsqaUBKTNV-1" edge="1">
          <mxGeometry width="50" height="50" relative="1" as="geometry">
            <mxPoint x="-512" y="1326.88" as="sourcePoint" />
            <mxPoint x="-512" y="1394.88" as="targetPoint" />
          </mxGeometry>
        </mxCell>
        <mxCell id="teyGcw7DqHjlIo54tSY7-172" value="postMessger&lt;br&gt;(jschannel)" style="edgeLabel;html=1;align=center;verticalAlign=middle;resizable=0;points=[];fontSize=12;fontColor=#143642;" parent="teyGcw7DqHjlIo54tSY7-171" vertex="1" connectable="0">
          <mxGeometry x="-0.3125" y="-1" relative="1" as="geometry">
            <mxPoint as="offset" />
          </mxGeometry>
        </mxCell>
        <mxCell id="teyGcw7DqHjlIo54tSY7-173" value="任务信息" style="text;html=1;strokeColor=none;fillColor=none;align=center;verticalAlign=middle;whiteSpace=wrap;rounded=0;shadow=0;glass=0;sketch=0;fontSize=12;fontColor=#143642;" parent="WIyWlLk6GJQsqaUBKTNV-1" vertex="1">
          <mxGeometry x="-473" y="1350" width="60" height="20" as="geometry" />
        </mxCell>
      </root>
    </mxGraphModel>
  </diagram>
</mxfile>
